
<svg xmlns="http://www.w3.org/2000/svg" version="1.1" xmlns:xlink="http://www.w3.org/1999/xlink" preserveAspectRatio="none" x="0px" y="0px" width="148px" height="90px" viewBox="0 0 148 90">
<defs>
<g id="Layer2_0_FILL">
<path fill="#000000" fill-opacity="0.4" stroke="none" d="
M 147.25 48.1
Q 147.7 47.7 147.9 47.1 148.1 46.5 147.9 45.9 147.7 45.3 147.25 44.95
L 117.25 21.5
Q 116.6 21 115.85 21.05 115.05 21.1 114.55 21.7 114 22.25 114 23.05
L 114 39.05
Q 113.4 38.95 112.8 38.95
L 109 38.95 109 37.1
Q 109 24.25 100.4 15.2 91.8 6 79.55 6
L 29.45 6
Q 17.2 6 8.65 15.15
L 8.6 15.2
Q 6.4 17.45 4.85 19.95
L 4.9 19.95
Q 0.35 27 0 35.95
L 0 59.7
Q 0.25 72 8.6 80.9 16.8 89.6 28.25 90
L 28.3 90
Q 28.85 90 29.45 90
L 79.55 90
Q 80.15 90 80.8 90 80.85 90 80.9 90 92.25 89.55 100.4 80.9 109 71.75 109 58.9
L 109 55.95 112.8 55.95
Q 113.4 55.95 114 55.9
L 114 69.9
Q 114 70.7 114.55 71.25 115.05 71.85 115.85 71.9 116.6 71.95 117.25 71.5
L 147.25 48.1 Z"/>
</g>
</defs>

<g transform="matrix( 1, 0, 0, 1, 0,0) ">
<use xlink:href="#Layer2_0_FILL"/>
</g>
</svg>
