<svg xmlns="http://www.w3.org/2000/svg" version="1.1" xmlns:xlink="http://www.w3.org/1999/xlink" preserveAspectRatio="none" x="0px" y="0px" width="144px" height="80px" viewBox="0 0 144 80">
<defs>
<g id="Layer0_0_FILL">
<path fill="#83B507" stroke="none" d="
M 110.8 32.95
L 105 32.95 105 29.1
Q 105 17.05 96.95 8.55 88.95 0 77.55 0
L 27.45 0
Q 16.05 0 8.05 8.55 6 10.65 4.55 13 0.3 19.65 0 28
L 0 51.65
Q 0.25 63.2 8.05 71.5 15.7 79.6 26.3 80 26.85 80 27.45 80
L 77.55 80
Q 78.15 80 78.8 80 89.35 79.55 96.95 71.5 105 62.95 105 50.9
L 105 45.95 110.8 45.95
Q 112.5705078125 45.9513671875 114 45.1
L 114 61.9 144 38.5 114 15.05 114 33.75
Q 112.5705078125 32.9486328125 110.8 32.95 Z"/>
</g>
</defs>

<g transform="matrix( 1, 0, 0, 1, 0,0) ">
<use xlink:href="#Layer0_0_FILL"/>
</g>
</svg>
