
<svg xmlns="http://www.w3.org/2000/svg" version="1.1" xmlns:xlink="http://www.w3.org/1999/xlink" preserveAspectRatio="none" x="0px" y="0px" width="148px" height="92px" viewBox="0 0 148 92">
<defs>
<g id="Layer3_0_FILL">
<path fill="#000000" fill-opacity="0.4" stroke="none" d="
M 147.9 47.9
Q 147.7 47.3 147.25 46.95
L 117.25 23.5
Q 116.6 23 115.85 23.05 115.05 23.1 114.55 23.7 114 24.25 114 25.05
L 114 41.05
Q 113.4 40.95 112.8 40.95
L 109 40.95 109 39.1
Q 109 26.25 100.4 17.2 91.8 8 79.55 8
L 29.45 8
Q 17.2 8 8.65 17.15
L 8.6 17.2
Q 6.4 19.45 4.85 21.95
L 4.9 21.95
Q 0.35 29 0 37.95
L 0 61.7
Q 0.25 74 8.6 82.9 16.8 91.6 28.25 92
L 28.3 92
Q 28.85 92 29.45 92
L 79.55 92
Q 80.15 92 80.8 92 80.85 92 80.9 92 92.25 91.55 100.4 82.9 109 73.75 109 60.9
L 109 57.95 112.8 57.95
Q 113.4 57.95 114 57.9
L 114 71.9
Q 114 72.7 114.55 73.25 115.05 73.85 115.85 73.9 116.6 73.95 117.25 73.5
L 147.25 50.1
Q 147.7 49.7 147.9 49.1 148.1 48.5 147.9 47.9 Z"/>
</g>
</defs>

<g transform="matrix( 1, 0, 0, 1, 0,0) ">
<use xlink:href="#Layer3_0_FILL"/>
</g>
</svg>
