
<svg xmlns="http://www.w3.org/2000/svg" version="1.1" xmlns:xlink="http://www.w3.org/1999/xlink" preserveAspectRatio="none" x="0px" y="0px" width="109px" height="125px" viewBox="0 0 109 125">
<defs>
<g id="Layer0_0_FILL">
<path fill="#CC3300" stroke="none" d="
M 107 89.5
L 107 68
Q 107 56.15 98.95 47.75 90.95 39.4 79.55 39.4
L 66.6 39.4
Q 66.6 39.3 66.6 39.15
L 66.6 36.25
Q 66.6 25.45 58.85 17.8 51.1 10.2 40.1 10.2
L 29.95 10.2 29.95 1.95 9.9 17.2 29.95 32.4 29.95 23 40.1 23
Q 45.7 23 49.65 26.85 53.6 30.75 53.6 36.25
L 53.6 39.15
Q 53.6 39.3 53.6 39.4
L 29.45 39.4
Q 18.05 39.4 10.05 47.75 8.05 49.85 6.55 52.15 2 59.1 2 68
L 2 89.5
Q 2 94.5 3.4 98.85 3.45 99 3.55 99.2 5.55 105.05 10.05 109.7 17.7 117.75 28.25 118.15 28.55 118.15 28.8 118.15 29.15 118.15 29.45 118.15
L 79.55 118.15
Q 80.2 118.15 80.85 118.15 91.35 117.7 98.95 109.7 107 101.35 107 89.5 Z"/>
</g>
</defs>

<g transform="matrix( 1, 0, 0, 1, 0,0) ">
<use xlink:href="#Layer0_0_FILL"/>
</g>
</svg>
