
<svg xmlns="http://www.w3.org/2000/svg" version="1.1" xmlns:xlink="http://www.w3.org/1999/xlink" preserveAspectRatio="none" x="0px" y="0px" width="109px" height="125px" viewBox="0 0 109 125">
<defs>
<g id="Layer2_0_FILL">
<path fill="#000000" fill-opacity="0.4" stroke="none" d="
M 109 95.4
L 109 73.95
Q 109 67.95 107.1 62.85 104.95 57.05 100.4 52.3 91.8 43.3 79.55 43.3
L 68.6 43.3 68.6 42.2
Q 68.6 30.5 60.3 22.35 51.95 14.15 40.1 14.15
L 31.95 14.15 31.95 7.9
Q 31.95 7.1 31.45 6.55 30.9 5.95 30.15 5.9 29.35 5.85 28.75 6.35
L 8.7 21.55
Q 8.2 21.9 8 22.5 7.8 23.1 8 23.65 8.2 24.25 8.7 24.65
L 28.75 39.85
Q 29.35 40.3 30.15 40.25 30.9 40.2 31.45 39.6 31.95 39.1 31.95 38.3
L 31.95 30.85 40.1 30.85
Q 44.85 30.85 48.25 34.2 51.6 37.5 51.6 42.2
L 51.6 43.3 29.45 43.3
Q 17.2 43.3 8.6 52.3 6.45 54.6 4.9 57.05 0 64.45 0 73.95
L 0 95.4
Q 0 100.7 1.5 105.35
L 1.5 105.4
Q 1.6 105.6 1.75 105.95 3.9 112.05 8.6 117 13.25 121.85 18.95 124.15 19 124.2 19.1 124.2 23.35 125.85 28.2 126
L 28.25 126
Q 28.55 126 28.8 126 29.15 126 29.45 126
L 79.55 126
Q 80.2 126 80.85 126 80.9 126 80.95 126 85.7 125.8 89.95 124.2 90 124.2 90.05 124.15 95.75 121.85 100.4 117 104.95 112.25 107.1 106.45 109 101.35 109 95.4 Z"/>
</g>
</defs>

<g transform="matrix( 1, 0, 0, 1, 0,0) ">
<use xlink:href="#Layer2_0_FILL"/>
</g>
</svg>
