<svg xmlns="http://www.w3.org/2000/svg" version="1.1" xmlns:xlink="http://www.w3.org/1999/xlink" preserveAspectRatio="none" x="0px" y="0px" width="105px" height="118px" viewBox="0 0 105 118">
<defs>
<g id="Layer0_0_FILL">
<path fill="#BF4A0A" stroke="none" d="
M 105 88.9
L 105 67.1
Q 105 55.05 96.95 46.5 88.95 38 77.55 38
L 64.6 38
Q 64.6 37.8759765625 64.6 37.75
L 64.6 34.85
Q 64.598828125 23.8525390625 56.85 16.1 49.097265625 8.3509765625 38.1 8.35
L 27.95 8.35 27.95 0 7.9 15.45 27.95 30.9 27.95 21.35 38.1 21.35
Q 43.7025390625 21.348828125 47.65 25.3 51.6009765625 29.247265625 51.6 34.85
L 51.6 37.75
Q 51.6 37.8759765625 51.6 38
L 27.45 38
Q 16.05 38 8.05 46.5 6.05 48.65 4.55 51 0 58.05 0 67.1
L 0 88.9
Q 0 94 1.4 98.4 1.45 98.55 1.55 98.75 3.55 104.7 8.05 109.45 15.7 117.6 26.25 118 26.55 118 26.8 118 27.15 118 27.45 118
L 77.55 118
Q 78.2 118 78.85 118 89.35 117.55 96.95 109.45 105 100.95 105 88.9 Z"/>
</g>
</defs>

<g transform="matrix( 1, 0, 0, 1, 0,0) ">
<use xlink:href="#Layer0_0_FILL"/>
</g>
</svg>
