
<svg xmlns="http://www.w3.org/2000/svg" version="1.1" xmlns:xlink="http://www.w3.org/1999/xlink" preserveAspectRatio="none" x="0px" y="0px" width="70px" height="70px" viewBox="0 0 70 70">
<defs>
<g id="Layer1_0_FILL">
<path fill="#FFFFFF" stroke="none" d="
M 70 35
Q 70 25.25 65.4 17.5 63.05 13.6 59.65 10.2 49.4 0 35 0 20.45 0 10.15 10.2 0 20.6 0 35 0 49.55 10.15 59.7 20.45 70 35 70 49.4 70 59.65 59.85
L 59.8 59.7
Q 70 49.55 70 35
M 55.35 14.55
Q 58.15 17.2 60.2 20.65
L 60.15 20.6
Q 63.85 26.95 63.85 35 63.85 46.95 55.35 55.35 46.9 63.9 35 63.9 22.9 63.9 14.4 55.35 6.1 47.1 6.1 35 6.1 23.1 14.4 14.65
L 14.65 14.55
Q 23.05 6.15 35 6.15 46.95 6.15 55.35 14.55 Z"/>

<path fill="#FFFFFF" fill-opacity="0.4196078431372549" stroke="none" d="
M 60.2 20.65
Q 58.15 17.2 55.35 14.55 46.95 6.15 35 6.15 23.05 6.15 14.65 14.55
L 14.4 14.65
Q 6.1 23.1 6.1 35 6.1 47.1 14.4 55.35 22.9 63.9 35 63.9 46.9 63.9 55.35 55.35 63.85 46.95 63.85 35 63.85 26.95 60.15 20.6
L 60.2 20.65 Z"/>
</g>

<g id="Layer0_0_FILL">
<path fill="#66CC00" stroke="none" d="
M 64.55 12.95
Q 62.8 12.95 61.65 14.2
L 31.65 44.1 18.25 30.65
Q 17.1 29.4 15.35 29.4 13.6 29.4 12.4 30.65 11.2 31.8 11.2 33.55 11.2 35.3 12.4 36.45
L 31.65 55.7 67.55 20
Q 68.65 18.85 68.65 17.1 68.65 15.35 67.55 14.2 66.3 12.95 64.55 12.95 Z"/>
</g>
</defs>

<g transform="matrix( 1, 0, 0, 1, 0,0) ">
<use xlink:href="#Layer1_0_FILL"/>
</g>

<g transform="matrix( 1, 0, 0, 1, 0,0) ">
<use xlink:href="#Layer0_0_FILL"/>
</g>
</svg>
